<svg width="130" height="36" viewBox="0 0 130 36" fill="none" xmlns="http://www.w3.org/2000/svg">
<path d="M160.11 13.9761C163.911 14.0209 166.78 14.9331 168.718 16.7127C170.665 18.4828 171.619 21.0283 171.58 24.3493L171.485 32.4119L162.4 32.3048L162.429 29.7996C161.775 30.7519 160.902 31.5 159.811 32.0439C158.72 32.5782 157.435 32.8366 155.957 32.8192C154.681 32.8042 153.57 32.5607 152.625 32.0888C151.68 31.6073 150.959 30.9556 150.459 30.1337C149.97 29.312 149.731 28.378 149.744 27.3318C149.756 26.2472 150.051 25.2907 150.627 24.4623C151.213 23.6341 152.022 22.9956 153.054 22.547C154.087 22.0888 155.265 21.8675 156.59 21.8831C157.895 21.8985 159.011 22.1133 159.938 22.5274C160.873 22.9416 161.692 23.5656 162.392 24.3994C162.215 23.1302 161.636 22.1634 160.655 21.4991C159.684 20.8348 158.392 20.4932 156.779 20.4742C155.666 20.4611 154.55 20.6351 153.433 20.9963C152.315 21.3479 151.364 21.8311 150.579 22.4458L150.652 16.2693C151.841 15.5538 153.225 14.9893 154.804 14.576C156.384 14.153 158.152 13.9531 160.11 13.9761ZM160.14 28.5919C160.821 28.5999 161.375 28.4529 161.801 28.1507C162.236 27.839 162.457 27.4433 162.463 26.9633C162.468 26.493 162.262 26.1066 161.843 25.8041C161.424 25.492 160.879 25.3319 160.207 25.324C159.573 25.3165 159.058 25.4641 158.661 25.7666C158.274 26.0596 158.077 26.4461 158.071 26.926C158.066 27.4155 158.248 27.816 158.619 28.1276C158.999 28.4297 159.506 28.5844 160.14 28.5919Z" fill="white"/>
<path d="M45.3282 3.66855C41.8926 2.06802 38.2157 0.897193 34.3682 0.2193C33.8897 1.0536 33.3299 2.17625 32.9431 3.06976C28.8524 2.44055 24.7955 2.41446 20.7725 2.99151C20.3973 2.0931 19.8392 0.963264 19.3673 0.122853C15.5073 0.75119 11.8114 1.87881 8.35557 3.43921C1.33953 13.677 -0.608938 23.6921 0.269512 33.5828C4.85738 36.9828 9.31137 39.0588 13.6946 40.4267C14.7883 38.9725 15.7655 37.4255 16.6092 35.7938C15.0262 35.1934 13.5111 34.4551 12.0805 33.6001C12.4633 33.3263 12.8377 33.0398 13.1997 32.7447C21.9325 36.812 31.4488 36.8732 40.1284 32.9179C40.4909 33.2175 40.8615 33.5089 41.2365 33.7875C39.7909 34.6282 38.2622 35.3469 36.6717 35.9271C37.4944 37.5652 38.4473 39.1288 39.5265 40.5969C43.931 39.2855 48.4156 37.267 53.0468 33.9221C54.2258 22.4703 51.2962 12.5161 45.3282 3.66855ZM17.8549 27.6166C15.2258 27.5997 13.085 25.1826 13.1039 22.2562C13.1227 19.3297 15.2482 16.936 17.9235 16.9532C20.5988 16.9704 22.7395 19.3873 22.6746 22.3177C22.6599 25.2442 20.5302 27.6338 17.8549 27.6166ZM35.5395 27.7303C32.9103 27.7134 30.7696 25.2963 30.7884 22.3699C30.8072 19.4434 32.9329 17.0497 35.608 17.0669C38.2833 17.0841 40.4241 19.501 40.3592 22.4314C40.3404 25.3579 38.2148 27.7475 35.5395 27.7303Z" fill="white"/>
<path d="M71.7223 10.7515L83.1521 10.825C85.907 10.8427 88.2318 11.2888 90.1356 12.1593C92.0351 13.03 93.4551 14.2365 94.3913 15.7748C95.3273 17.3132 95.7936 19.0705 95.7809 21.0466C95.7684 22.981 95.2633 24.732 94.2652 26.2957C93.2671 27.8634 91.7557 29.0973 89.7276 30.0012C87.6997 30.9049 85.193 31.3495 82.1993 31.3303L71.5904 31.262L71.7223 10.7515ZM82.116 26.1171C83.9701 26.129 85.4008 25.6735 86.4038 24.7546C87.4059 23.8315 87.9122 22.5704 87.9225 20.9669C87.9321 19.4806 87.4959 18.2928 86.6141 17.3996C85.7322 16.5063 84.3914 16.0498 82.595 16.0382L79.0197 16.0152L78.9548 26.0968L82.116 26.1171Z" fill="white"/>
<path d="M112.825 31.5019C111.246 31.0814 109.822 30.4777 108.558 29.6867L108.589 24.8217C109.544 25.569 110.825 26.1885 112.434 26.6803C114.042 27.168 115.598 27.4166 117.106 27.4263C117.809 27.4308 118.341 27.3421 118.702 27.1602C119.063 26.9783 119.245 26.7577 119.247 26.5023C119.249 26.2091 119.154 25.9657 118.958 25.7677C118.763 25.5696 118.383 25.4039 117.819 25.2621L114.307 24.4483C112.296 23.9663 110.872 23.3083 110.028 22.4696C109.184 21.6352 108.767 20.5439 108.776 19.1959C108.783 18.0613 109.159 17.0797 109.909 16.243C110.655 15.4062 111.714 14.7641 113.087 14.3165C114.459 13.8648 116.06 13.6449 117.897 13.6568C119.538 13.6673 121.041 13.8528 122.408 14.2133C123.774 14.5736 124.901 15.0289 125.798 15.5832L125.769 20.1844C124.851 19.63 123.799 19.1919 122.595 18.8576C121.396 18.5275 120.161 18.3605 118.889 18.3523C117.051 18.3405 116.132 18.6486 116.128 19.2725C116.126 19.5655 116.267 19.7842 116.55 19.9324C116.834 20.0809 117.357 20.2348 118.113 20.3989L121.041 20.9453C122.952 21.2883 124.376 21.8795 125.309 22.7145C126.241 23.5494 126.702 24.7791 126.691 26.4035C126.68 28.1829 125.897 29.5888 124.337 30.6254C122.776 31.6622 120.571 32.1713 117.716 32.153C116.037 32.1381 114.405 31.9225 112.825 31.5019Z" fill="white"/>
<path d="M133.579 31.0197C131.906 30.1883 130.644 29.0665 129.807 27.6544C128.971 26.2423 128.554 24.6569 128.565 22.8984C128.576 21.1402 129.026 19.5687 129.914 18.1886C130.803 16.8083 132.099 15.7282 133.804 14.9478C135.509 14.1676 137.541 13.787 139.908 13.8022C142.838 13.821 145.267 14.4522 147.193 15.6955L147.158 21.0586C146.479 20.5854 145.686 20.1992 144.779 19.9003C143.873 19.6014 142.902 19.4485 141.864 19.4419C140.047 19.4302 138.625 19.7518 137.595 20.411C136.566 21.07 136.045 21.9334 136.038 23.0094C136.031 24.0644 136.524 24.9301 137.517 25.6147C138.508 26.2952 139.95 26.6436 141.847 26.6558C142.822 26.6621 143.786 26.5259 144.738 26.2516C145.687 25.9729 146.505 25.6305 147.19 25.2247L147.157 30.4121C145 31.6877 142.506 32.3164 139.671 32.2982C137.285 32.2745 135.252 31.8511 133.579 31.0197Z" fill="white"/>
<path d="M189.278 15.2001L189.238 21.5303C188.495 21.0357 187.534 20.7866 186.34 20.7789C184.78 20.7689 183.57 21.2342 182.726 22.1752C181.88 23.1159 181.451 24.5869 181.438 26.5798L181.404 31.9723L174.223 31.9262L174.334 14.7816L181.368 14.8268L181.333 20.2779C181.734 18.2875 182.376 16.8221 183.253 15.8772C184.126 14.9368 185.251 14.4709 186.616 14.4796C187.65 14.4863 188.536 14.7264 189.278 15.2001Z" fill="white"/>
<path d="M213.161 11.0747L213.026 32.1755L205.845 32.1293L205.87 28.2901C205.255 29.7307 204.325 30.8258 203.082 31.5714C201.837 32.3129 200.303 32.6799 198.484 32.6682C196.861 32.6577 195.448 32.2551 194.244 31.4561C193.039 30.6569 192.112 29.5666 191.464 28.185C190.819 26.8034 190.498 25.2439 190.509 23.5021C190.501 21.7059 190.859 20.0963 191.582 18.6732C192.304 17.2501 193.32 16.143 194.623 15.3516C195.927 14.5603 197.411 14.168 199.074 14.1787C202.494 14.2007 204.778 15.7016 205.932 18.6775L205.981 11.0285L213.161 11.0747ZM204.812 26.1606C205.549 25.4537 205.919 24.5308 205.926 23.4002C205.933 22.3076 205.583 21.4135 204.877 20.7264C204.169 20.0395 203.194 19.6899 201.969 19.682C200.758 19.6742 199.79 20.0156 199.061 20.7059C198.333 21.3962 197.966 22.294 197.959 23.4077C197.952 24.5213 198.307 25.4322 199.026 26.1401C199.746 26.8482 200.698 27.206 201.891 27.2137C203.1 27.2172 204.074 26.8677 204.812 26.1606Z" fill="white"/>
<path d="M101.862 16.1411C103.839 16.1538 105.452 14.7247 105.463 12.9489C105.474 11.1731 103.88 9.72313 101.904 9.71042C99.9269 9.69771 98.3146 11.127 98.3032 12.9028C98.2918 14.6786 99.8855 16.1284 101.862 16.1411Z" fill="white"/>
<path d="M98.2652 18.3331C100.453 19.2934 103.174 19.3528 105.425 18.3791L105.34 31.5755L98.1804 31.5295L98.2652 18.3331Z" fill="white"/>
</svg>
