<svg xmlns="http://www.w3.org/2000/svg" width="130" height="36" viewBox="0 0 130 36" fill="none">
<g clip-path="url(#clip0_0_1)">
<path d="M98.189 14.0312C100.49 14.0583 102.227 14.6105 103.4 15.6878C104.578 16.7594 105.156 18.3004 105.132 20.3109L105.075 25.1918L99.575 25.127L99.5928 23.6104C99.1967 24.1869 98.6683 24.6398 98.0077 24.9691C97.3472 25.2925 96.5696 25.449 95.6747 25.4384C94.9019 25.4293 94.2295 25.2819 93.6575 24.9962C93.0857 24.7047 92.6486 24.3102 92.3465 23.8127C92.0502 23.3152 91.9057 22.7498 91.9132 22.1165C91.9209 21.4599 92.0992 20.8808 92.448 20.3793C92.8026 19.8779 93.2924 19.4914 93.9174 19.2198C94.5425 18.9424 95.256 18.8085 96.0579 18.8179C96.8481 18.8272 97.5236 18.9572 98.0844 19.2079C98.6509 19.4587 99.1462 19.8365 99.5703 20.3412C99.4632 19.5729 99.1127 18.9876 98.5188 18.5854C97.9308 18.1833 97.1487 17.9765 96.1725 17.965C95.4985 17.957 94.8231 18.0624 94.1464 18.2811C93.4698 18.4939 92.8939 18.7864 92.4188 19.1586L92.4629 15.4194C93.1828 14.9863 94.0207 14.6445 94.9768 14.3943C95.9329 14.1382 97.0036 14.0172 98.189 14.0312ZM98.2067 22.8793C98.6193 22.8842 98.9545 22.7951 99.2123 22.6122C99.4761 22.4235 99.6096 22.1839 99.6131 21.8934C99.6164 21.6087 99.4913 21.3747 99.2378 21.1916C98.9843 21.0026 98.6542 20.9058 98.2475 20.901C97.864 20.8965 97.552 20.9858 97.3116 21.1689C97.077 21.3463 96.958 21.5802 96.9546 21.8708C96.9511 22.1671 97.0616 22.4096 97.286 22.5982C97.5163 22.7811 97.8232 22.8748 98.2067 22.8793Z" fill="white"/>
<path d="M28.4409 8.22088C26.3611 7.25194 24.1351 6.54314 21.8059 6.13276C21.5163 6.63783 21.1774 7.31746 20.9432 7.85838C18.4667 7.47746 16.0108 7.46167 13.5753 7.81101C13.3482 7.26713 13.0103 6.58314 12.7247 6.07437C10.3878 6.45476 8.15039 7.1374 6.05832 8.08204C1.81093 14.2798 0.631363 20.3428 1.16316 26.3304C3.94058 28.3888 6.63695 29.6455 9.29049 30.4736C9.9526 29.5932 10.5441 28.6567 11.0549 27.669C10.0966 27.3055 9.1794 26.8585 8.31334 26.3409C8.54508 26.1752 8.77174 26.0017 8.99086 25.8231C14.2776 28.2853 20.0385 28.3224 25.2931 25.9279C25.5125 26.1093 25.7369 26.2857 25.9639 26.4544C25.0887 26.9633 24.1633 27.3984 23.2004 27.7496C23.6985 28.7413 24.2753 29.6879 24.9286 30.5767C27.5951 29.7827 30.31 28.5608 33.1136 26.5359C33.8273 19.6031 32.0538 13.577 28.4409 8.22088ZM11.8091 22.7186C10.2174 22.7084 8.92146 21.2451 8.93285 19.4735C8.94424 17.7019 10.231 16.2527 11.8506 16.2632C13.4702 16.2736 14.7661 17.7367 14.7268 19.5108C14.7179 21.2824 13.4286 22.729 11.8091 22.7186ZM22.515 22.7875C20.9233 22.7772 19.6274 21.314 19.6388 19.5423C19.6502 17.7707 20.937 16.3216 22.5565 16.332C24.1761 16.3424 25.472 17.8056 25.4328 19.5796C25.4214 21.3512 24.1346 22.7979 22.515 22.7875Z" fill="white"/>
<path d="M44.4194 12.5087L51.3388 12.5532C53.0066 12.5639 54.414 12.834 55.5665 13.361C56.7164 13.8881 57.5761 14.6185 58.1428 15.5498C58.7095 16.4811 58.9918 17.5449 58.9841 18.7412C58.9765 19.9123 58.6707 20.9723 58.0665 21.9189C57.4622 22.868 56.5473 23.615 55.3195 24.1622C54.0919 24.7093 52.5743 24.9784 50.762 24.9668L44.3396 24.9255L44.4194 12.5087ZM50.7116 21.8108C51.8341 21.818 52.7002 21.5422 53.3073 20.986C53.914 20.4272 54.2205 19.6637 54.2268 18.693C54.2325 17.7932 53.9685 17.0741 53.4346 16.5334C52.9008 15.9926 52.0891 15.7162 51.0016 15.7092L48.8371 15.6953L48.7979 21.7985L50.7116 21.8108Z" fill="white"/>
<path d="M69.3025 25.0707C68.3461 24.8161 67.4841 24.4507 66.7192 23.9718L66.7381 21.0267C67.3159 21.479 68.0915 21.8541 69.0656 22.1518C70.0391 22.4471 70.9812 22.5975 71.8938 22.6034C72.3194 22.6061 72.6418 22.5525 72.8603 22.4423C73.0788 22.3322 73.1889 22.1987 73.1899 22.044C73.191 21.8665 73.1336 21.7192 73.0153 21.5993C72.897 21.4794 72.6668 21.3791 72.3254 21.2933L70.1992 20.8006C68.9819 20.5088 68.1202 20.1104 67.609 19.6027C67.0979 19.0976 66.8459 18.4369 66.8511 17.6209C66.8555 16.934 67.0827 16.3398 67.537 15.8332C67.9889 15.3267 68.63 14.9379 69.4606 14.667C70.2912 14.3935 71.2606 14.2604 72.3731 14.2676C73.3665 14.274 74.2759 14.3862 75.1034 14.6045C75.9304 14.8226 76.613 15.0983 77.1561 15.4338L77.1382 18.2193C76.5827 17.8837 75.9459 17.6184 75.2169 17.4161C74.491 17.2162 73.7434 17.1151 72.9733 17.1102C71.8604 17.103 71.3044 17.2896 71.302 17.6672C71.3009 17.8446 71.3862 17.977 71.5576 18.0668C71.7295 18.1566 72.0459 18.2498 72.5038 18.3492L74.2762 18.6799C75.4332 18.8876 76.2952 19.2455 76.8598 19.751C77.4242 20.2564 77.7031 21.0009 77.6968 21.9843C77.6898 23.0615 77.2157 23.9125 76.2712 24.5401C75.3266 25.1678 73.9918 25.476 72.2632 25.4648C71.2465 25.4558 70.2588 25.3253 69.3025 25.0707Z" fill="white"/>
<path d="M81.8664 24.7788C80.8533 24.2755 80.0896 23.5964 79.5831 22.7415C79.0768 21.8866 78.8242 20.9268 78.831 19.8623C78.8379 18.7979 79.1102 17.8466 79.6479 17.0111C80.1856 16.1755 80.9704 15.5216 82.0027 15.0491C83.0345 14.5768 84.2652 14.3464 85.6976 14.3556C87.4715 14.367 88.9421 14.7491 90.108 15.5018L90.0871 18.7485C89.6758 18.462 89.1958 18.2283 88.6466 18.0473C88.098 17.8664 87.5104 17.7738 86.882 17.7698C85.7819 17.7627 84.9213 17.9574 84.2977 18.3565C83.6746 18.7554 83.3592 19.2781 83.355 19.9295C83.3509 20.5682 83.6492 21.0922 84.2501 21.5067C84.8505 21.9187 85.7234 22.1296 86.8718 22.137C87.4619 22.1408 88.0457 22.0583 88.6219 21.8922C89.1962 21.7236 89.6916 21.5163 90.1063 21.2706L90.0861 24.4109C88.7807 25.1832 87.2705 25.5638 85.5544 25.5528C84.11 25.5384 82.8795 25.2821 81.8664 24.7788Z" fill="white"/>
<path d="M115.586 15.2019L115.561 19.0341C115.112 18.7347 114.53 18.5838 113.807 18.5792C112.863 18.5731 112.13 18.8548 111.619 19.4245C111.107 19.994 110.847 20.8845 110.84 22.0909L110.819 25.3555L106.472 25.3275L106.539 14.9485L110.797 14.9759L110.776 18.2759C111.019 17.0709 111.407 16.1838 111.938 15.6118C112.467 15.0425 113.148 14.7604 113.974 14.7657C114.6 14.7697 115.136 14.9151 115.586 15.2019Z" fill="white"/>
<path d="M130.044 12.7044L129.962 25.4785L125.615 25.4505L125.63 23.1263C125.258 23.9985 124.695 24.6614 123.942 25.1128C123.189 25.5617 122.26 25.7838 121.159 25.7767C120.176 25.7704 119.321 25.5267 118.592 25.043C117.862 24.5592 117.301 23.8991 116.909 23.0627C116.519 22.2263 116.324 21.2822 116.331 20.2278C116.326 19.1404 116.543 18.166 116.981 17.3044C117.418 16.4429 118.033 15.7727 118.821 15.2936C119.611 14.8146 120.509 14.577 121.516 14.5835C123.586 14.5968 124.969 15.5055 125.668 17.307L125.697 12.6765L130.044 12.7044ZM124.99 21.8371C125.436 21.4092 125.66 20.8505 125.664 20.1661C125.668 19.5046 125.457 18.9633 125.029 18.5474C124.6 18.1316 124.01 17.9199 123.268 17.9151C122.536 17.9104 121.949 18.1171 121.508 18.535C121.067 18.9529 120.845 19.4964 120.841 20.1706C120.837 20.8448 121.051 21.3962 121.487 21.8247C121.923 22.2534 122.499 22.4701 123.221 22.4747C123.953 22.4768 124.543 22.2652 124.99 21.8371Z" fill="white"/>
<path d="M62.6657 15.7716C63.8624 15.7793 64.8385 14.9141 64.8454 13.839C64.8523 12.764 63.8874 11.8862 62.6907 11.8785C61.494 11.8708 60.518 12.7361 60.5111 13.8112C60.5041 14.8862 61.469 15.7639 62.6657 15.7716Z" fill="white"/>
<path d="M60.488 17.0985C61.8126 17.6799 63.4598 17.7159 64.8223 17.1264L64.7709 25.1153L60.4367 25.0874L60.488 17.0985Z" fill="white"/>
</g>
<defs>
<clipPath id="clip0_0_1">
<rect width="130" height="36" fill="white"/>
</clipPath>
</defs>
</svg>
